<?xml version="1.0" standalone="no"?>
<!DOCTYPE svg PUBLIC "-//W3C//DTD SVG 20010904//EN"
 "http://www.w3.org/TR/2001/REC-SVG-20010904/DTD/svg10.dtd">
<svg version="1.0" xmlns="http://www.w3.org/2000/svg"
 width="1024pt" height="1024pt" viewBox="0 0 1024 1024"
 preserveAspectRatio="xMidYMid meet">

<g transform="translate(0.000000,1024.000000) scale(0.100000,-0.100000)"
fill="#7C3AED" stroke="none">
<path d="M5140 8746 c0 -9 5 -16 10 -16 6 0 10 4 10 9 0 6 -4 13 -10 16 -5 3
-10 -1 -10 -9z"/>
<path d="M4678 8683 c7 -3 16 -2 19 1 4 3 -2 6 -13 5 -11 0 -14 -3 -6 -6z"/>
<path d="M4935 8674 c-22 -2 -89 -9 -150 -14 -603 -58 -1201 -276 -1666 -608
-163 -117 -320 -257 -494 -442 -380 -405 -664 -981 -790 -1603 -33 -167 -66
-474 -72 -682 -19 -675 118 -1314 402 -1874 219 -432 572 -843 1002 -1165 168
-126 297 -205 512 -313 462 -232 904 -356 1419 -398 113 -9 444 -7 577 4 224
19 356 41 550 93 265 70 527 178 759 312 44 25 81 45 82 43 3 -3 6 -139 4
-236 -1 -84 22 -132 70 -147 42 -14 859 -18 893 -5 12 5 33 19 47 30 l24 22
-2 1357 c-2 1515 -10 2386 -23 2419 -5 13 -23 32 -41 43 -33 20 -47 20 -1223
18 -1300 -3 -1214 1 -1250 -61 -17 -29 -18 -64 -11 -561 l6 -531 24 -24 c13
-13 43 -27 67 -32 24 -4 293 -8 597 -9 l552 0 0 -596 0 -596 35 -35 c32 -32
40 -35 73 -30 22 4 46 17 60 32 l22 26 0 635 c0 683 0 684 -52 718 -20 13 -98
15 -548 17 -289 2 -553 5 -587 7 l-63 4 0 428 0 428 1084 1 1084 1 6 -1142 c4
-629 8 -1423 9 -1766 l2 -622 -65 -1 c-228 -2 -348 -6 -367 -11 -13 -4 -23 -3
-23 2 0 13 -43 8 -52 -5 -5 -6 -8 -6 -8 1 0 15 -100 14 -100 -1 0 -7 -3 -7 -8
0 -4 6 -18 10 -32 10 l-25 0 -5 230 c-3 127 -7 231 -8 232 -1 1 -16 10 -32 18
-50 26 -93 10 -199 -70 -53 -40 -101 -74 -106 -76 -6 -2 -55 -30 -109 -63
-285 -169 -689 -287 -1096 -321 -158 -13 -459 -16 -590 -6 -592 46 -1187 249
-1669 570 -46 31 -91 61 -100 66 -39 23 -193 148 -310 251 -155 136 -287 282
-464 514 -82 109 -287 474 -287 513 0 9 -4 17 -8 19 -9 3 -78 171 -92 223 -2
6 -16 48 -32 95 -16 47 -44 146 -63 220 -102 407 -133 729 -114 1190 41 957
431 1789 1103 2353 371 311 889 553 1396 652 302 59 666 84 955 64 534 -36
1083 -186 1530 -418 152 -79 355 -201 455 -274 152 -112 369 -310 481 -439
l58 -67 -17 -53 c-9 -29 -19 -55 -23 -58 -4 -3 -19 -29 -34 -59 -118 -234
-257 -323 -543 -346 l-82 -6 -93 88 c-459 440 -926 672 -1547 768 -166 26
-485 31 -670 11 -339 -37 -701 -146 -931 -281 -33 -19 -62 -35 -64 -35 -2 0
-43 -26 -92 -58 -382 -254 -672 -620 -829 -1050 -119 -325 -183 -812 -155
-1172 61 -770 323 -1317 846 -1767 319 -275 728 -473 1145 -554 118 -22 380
-49 487 -49 104 0 350 27 467 51 154 32 327 93 485 170 164 81 191 102 191
154 0 43 -45 95 -82 95 -13 0 -68 -23 -121 -50 -53 -28 -129 -64 -169 -81 -40
-17 -86 -37 -103 -44 -36 -15 -161 -48 -264 -70 -148 -31 -244 -37 -556 -33
-53 1 -211 21 -304 39 -527 104 -1022 401 -1340 803 -251 318 -394 654 -468
1101 -25 155 -26 699 0 853 56 341 132 565 277 817 247 429 657 744 1155 886
262 76 457 103 725 103 292 -1 544 -43 816 -138 370 -129 659 -309 962 -598
153 -146 150 -145 331 -135 277 16 460 108 607 306 74 99 119 186 164 319 27
78 30 97 21 125 -20 59 -284 332 -483 499 -507 425 -1236 720 -2013 814 -113
14 -613 27 -700 18z m1940 -6584 c3 -5 1 -10 -4 -10 -6 0 -11 5 -11 10 0 6 2
10 4 10 3 0 8 -4 11 -10z m15 -34 c0 -3 -4 -8 -10 -11 -5 -3 -10 -1 -10 4 0 6
5 11 10 11 6 0 10 -2 10 -4z m-199 -119 c-10 -9 -11 -8 -5 6 3 10 9 15 12 12
3 -3 0 -11 -7 -18z m179 13 c-8 -5 -19 -10 -25 -10 -5 0 -3 5 5 10 8 5 20 10
25 10 6 0 3 -5 -5 -10z m-153 -25 c0 -8 -4 -12 -9 -9 -5 3 -6 10 -3 15 9 13
12 11 12 -6z m788 -168 c16 -5 15 -5 -4 -4 -14 1 -26 9 -28 17 -3 10 -2 11 4
4 4 -7 17 -14 28 -17z m-1768 -123 c-3 -3 -12 -4 -19 -1 -8 3 -5 6 6 6 11 1
17 -2 13 -5z"/>
<path d="M3398 8323 c7 -3 16 -2 19 1 4 3 -2 6 -13 5 -11 0 -14 -3 -6 -6z"/>
<path d="M5405 7700 c3 -5 11 -10 16 -10 6 0 7 5 4 10 -3 6 -11 10 -16 10 -6
0 -7 -4 -4 -10z"/>
<path d="M6065 7240 c3 -5 8 -10 11 -10 2 0 4 5 4 10 0 6 -5 10 -11 10 -5 0
-7 -4 -4 -10z"/>
<path d="M2147 7018 c-9 -31 -2 -33 11 -3 6 14 8 25 3 25 -5 0 -11 -10 -14
-22z"/>
<path d="M7310 6536 c0 -8 5 -18 10 -21 6 -3 10 3 10 14 0 12 -4 21 -10 21 -5
0 -10 -6 -10 -14z"/>
<path d="M1772 5865 c0 -16 2 -22 5 -12 2 9 2 23 0 30 -3 6 -5 -1 -5 -18z"/>
<path d="M5566 5567 c2 -7 14 -13 25 -14 21 -2 21 -1 3 12 -24 18 -35 19 -28
2z"/>
<path d="M1731 5444 c0 -11 3 -14 6 -6 3 7 2 16 -1 19 -3 4 -6 -2 -5 -13z"/>
<path d="M8500 4621 c0 -6 5 -13 10 -16 6 -3 10 1 10 9 0 9 -4 16 -10 16 -5 0
-10 -4 -10 -9z"/>
<path d="M1760 4340 c0 -11 4 -20 9 -20 5 0 7 9 4 20 -3 11 -7 20 -9 20 -2 0
-4 -9 -4 -20z"/>
<path d="M3685 3600 c10 -11 20 -20 23 -20 3 0 -3 9 -13 20 -10 11 -20 20 -23
20 -3 0 3 -9 13 -20z"/>
<path d="M3725 3550 c10 -11 20 -20 23 -20 3 0 -3 9 -13 20 -10 11 -20 20 -23
20 -3 0 3 -9 13 -20z"/>
<path d="M3790 3486 c0 -2 8 -10 18 -17 15 -13 16 -12 3 4 -13 16 -21 21 -21
13z"/>
<path d="M6150 3151 c0 -5 5 -13 10 -16 6 -3 10 -2 10 4 0 5 -4 13 -10 16 -5
3 -10 2 -10 -4z"/>
<path d="M5832 3005 c6 -14 13 -23 16 -21 7 7 -9 46 -18 46 -5 0 -4 -11 2 -25z"/>
<path d="M9835 1380 c3 -5 8 -10 11 -10 2 0 4 5 4 10 0 6 -5 10 -11 10 -5 0
-7 -4 -4 -10z"/>
</g>
</svg>
